<svg xmlns="http://www.w3.org/2000/svg" width="21" height="19" viewBox="0 0 21 19" fill="none">
  <mask id="path-1-inside-1_0_94" fill="white">
    <path d="M19.6608 7.48748L10.7398 0.350726C10.4498 0.118715 10.0679 -0.00684594 9.67393 0.000288177C9.27994 0.0074223 8.90437 0.146699 8.62572 0.389007L0.421053 7.52354L0 7.88963V18.4074H7.90625V11.8449H12.2188V18.4074H20.125V7.85889L19.6608 7.48748ZM9.70483 1.25002C9.7175 1.25002 9.70968 1.25241 9.70425 1.25705C9.69863 1.25241 9.69216 1.25002 9.70483 1.25002ZM18.6875 17.1574H13.6562V11.8449C13.6562 11.5134 13.5048 11.1954 13.2352 10.961C12.9656 10.7266 12.6 10.5949 12.2188 10.5949H7.90625C7.525 10.5949 7.15937 10.7266 6.88978 10.961C6.6202 11.1954 6.46875 11.5134 6.46875 11.8449V17.1574H1.4375V8.40741L9.70483 1.27287L9.70591 1.27151L18.6875 8.40741V17.1574Z"/>
  </mask>
  <path d="M19.6608 7.48748L10.7398 0.350726C10.4498 0.118715 10.0679 -0.00684594 9.67393 0.000288177C9.27994 0.0074223 8.90437 0.146699 8.62572 0.389007L0.421053 7.52354L0 7.88963V18.4074H7.90625V11.8449H12.2188V18.4074H20.125V7.85889L19.6608 7.48748ZM9.70483 1.25002C9.7175 1.25002 9.70968 1.25241 9.70425 1.25705C9.69863 1.25241 9.69216 1.25002 9.70483 1.25002ZM18.6875 17.1574H13.6562V11.8449C13.6562 11.5134 13.5048 11.1954 13.2352 10.961C12.9656 10.7266 12.6 10.5949 12.2188 10.5949H7.90625C7.525 10.5949 7.15937 10.7266 6.88978 10.961C6.6202 11.1954 6.46875 11.5134 6.46875 11.8449V17.1574H1.4375V8.40741L9.70483 1.27287L9.70591 1.27151L18.6875 8.40741V17.1574Z" fill="#FEB656"/>
  <path d="M19.6608 7.48748L21.2226 5.53537L21.2225 5.53531L19.6608 7.48748ZM10.7398 0.350726L9.17808 2.30288L9.17809 2.3029L10.7398 0.350726ZM8.62572 0.389007L10.2662 2.27552L10.2662 2.27551L8.62572 0.389007ZM0.421053 7.52354L2.0614 9.41014L2.0615 9.41005L0.421053 7.52354ZM0 7.88963L-1.64035 6.00303L-2.5 6.75047V7.88963H0ZM0 18.4074H-2.5V20.9074H0V18.4074ZM7.90625 18.4074V20.9074H10.4062V18.4074H7.90625ZM7.90625 11.8449V9.34491H5.40625V11.8449H7.90625ZM12.2188 11.8449H14.7188V9.34491H12.2188V11.8449ZM12.2188 18.4074H9.71875V20.9074H12.2188V18.4074ZM20.125 18.4074V20.9074H22.625V18.4074H20.125ZM20.125 7.85889H22.625V6.65738L21.6868 5.90677L20.125 7.85889ZM9.70425 1.25705L8.11005 3.18281L9.73042 4.52419L11.3291 3.15703L9.70425 1.25705ZM18.6875 17.1574V19.6574H21.1875V17.1574H18.6875ZM13.6562 17.1574H11.1562V19.6574H13.6562V17.1574ZM6.46875 17.1574V19.6574H8.96875V17.1574H6.46875ZM1.4375 17.1574H-1.0625V19.6574H1.4375V17.1574ZM1.4375 8.40741L-0.195837 6.51473L-1.0625 7.26264V8.40741H1.4375ZM9.70483 1.27287L11.3382 3.16555L11.5197 3.00887L11.6682 2.82054L9.70483 1.27287ZM9.70591 1.27151L11.2611 -0.685903L9.29616 -2.24703L7.74256 -0.27616L9.70591 1.27151ZM18.6875 8.40741H21.1875V7.20067L20.2427 6.45L18.6875 8.40741ZM21.2225 5.53531L12.3016 -1.60145L9.17809 2.3029L18.099 9.43966L21.2225 5.53531ZM12.3016 -1.60143C11.527 -2.22109 10.5674 -2.5163 9.62866 -2.4993L9.71919 2.49988C9.56846 2.50261 9.37262 2.45852 9.17808 2.30288L12.3016 -1.60143ZM9.62866 -2.4993C8.68999 -2.48231 7.7382 -2.15224 6.98526 -1.49749L10.2662 2.27551C10.0705 2.44564 9.86989 2.49715 9.71919 2.49988L9.62866 -2.4993ZM6.98527 -1.4975L-1.2194 5.63703L2.0615 9.41005L10.2662 2.27552L6.98527 -1.4975ZM-1.21929 5.63694L-1.64035 6.00303L1.64035 9.77623L2.0614 9.41014L-1.21929 5.63694ZM-2.5 7.88963V18.4074H2.5V7.88963H-2.5ZM0 20.9074H7.90625V15.9074H0V20.9074ZM10.4062 18.4074V11.8449H5.40625V18.4074H10.4062ZM7.90625 14.3449H12.2188V9.34491H7.90625V14.3449ZM9.71875 11.8449V18.4074H14.7188V11.8449H9.71875ZM12.2188 20.9074H20.125V15.9074H12.2188V20.9074ZM22.625 18.4074V7.85889H17.625V18.4074H22.625ZM21.6868 5.90677L21.2226 5.53537L18.099 9.4396L18.5632 9.81101L21.6868 5.90677ZM9.70483 3.75002C9.67482 3.75002 9.60735 3.74957 9.52136 3.74311C9.46817 3.73911 9.24677 3.7232 8.97675 3.64026C8.84059 3.59843 8.56758 3.50297 8.2717 3.29455C7.95974 3.0748 7.51689 2.65013 7.31289 1.95526C6.90745 0.574253 7.80491 -0.366659 7.84612 -0.412836C8.03167 -0.620742 8.21247 -0.74911 8.23341 -0.76444C8.27979 -0.798395 8.32379 -0.82762 8.30967 -0.818087C8.3095 -0.817973 8.30725 -0.816453 8.30451 -0.814594C8.3016 -0.81262 8.29724 -0.809657 8.29198 -0.806042C8.28161 -0.798922 8.26579 -0.787943 8.24673 -0.774236C8.21032 -0.748052 8.15 -0.703292 8.07941 -0.642918L11.3291 3.15703C11.2598 3.21624 11.201 3.25991 11.166 3.28507C11.1476 3.29827 11.1325 3.30875 11.1228 3.3154C11.1179 3.31878 11.1139 3.32151 11.1113 3.32325C11.11 3.32414 11.109 3.32486 11.1083 3.32532C11.1079 3.32555 11.1077 3.32574 11.1075 3.32586C11.1073 3.32598 11.1072 3.32607 11.1072 3.32608C11.0943 3.33473 11.1395 3.3047 11.1869 3.27001C11.2089 3.25395 11.3905 3.12492 11.5765 2.91643C11.6183 2.86966 12.516 1.92823 12.1104 0.546785C11.9063 -0.148312 11.4633 -0.573181 11.1511 -0.793115C10.855 -1.00172 10.5816 -1.09735 10.4449 -1.13932C10.174 -1.22256 9.95114 -1.23869 9.89597 -1.24284C9.808 -1.24945 9.73801 -1.24998 9.70483 -1.24998V3.75002ZM11.2984 -0.668705C11.2216 -0.732314 11.1235 -0.802348 11.1769 -0.763247C11.1809 -0.760344 11.2445 -0.714445 11.3195 -0.650601C11.3563 -0.619244 11.6042 -0.414812 11.8177 -0.0731699C12.0424 0.286406 12.561 1.40805 11.8067 2.59329C11.2686 3.43878 10.4429 3.63882 10.3553 3.66267C10.1263 3.72501 9.94108 3.73929 9.8816 3.7436C9.80027 3.74949 9.73612 3.75002 9.70483 3.75002V-1.24998C9.67038 -1.24998 9.60366 -1.24937 9.52028 -1.24333C9.45875 -1.23887 9.27197 -1.22437 9.04189 -1.16174C8.95319 -1.13759 8.12687 -0.937184 7.5885 -0.0912483C6.8339 1.09444 7.35257 2.2166 7.57767 2.57676C7.79155 2.91899 8.0401 3.12408 8.07779 3.15617C8.15362 3.22075 8.21829 3.26746 8.22346 3.27123C8.27926 3.31209 8.18408 3.2441 8.11005 3.18281L11.2984 -0.668705ZM18.6875 14.6574H13.6562V19.6574H18.6875V14.6574ZM16.1562 17.1574V11.8449H11.1562V17.1574H16.1562ZM16.1562 11.8449C16.1562 10.7286 15.6434 9.74207 14.8757 9.07451L11.5948 12.8475C11.3662 12.6488 11.1562 12.2982 11.1562 11.8449H16.1562ZM14.8757 9.07451C14.119 8.41656 13.159 8.09491 12.2188 8.09491V13.0949C12.041 13.0949 11.8122 13.0366 11.5948 12.8475L14.8757 9.07451ZM12.2188 8.09491H7.90625V13.0949H12.2188V8.09491ZM7.90625 8.09491C6.96605 8.09491 6.00598 8.41656 5.24934 9.07451L8.53023 12.8475C8.31276 13.0366 8.08396 13.0949 7.90625 13.0949V8.09491ZM5.24934 9.07451C4.48164 9.74207 3.96875 10.7286 3.96875 11.8449H8.96875C8.96875 12.2982 8.75876 12.6488 8.53023 12.8475L5.24934 9.07451ZM3.96875 11.8449V17.1574H8.96875V11.8449H3.96875ZM6.46875 14.6574H1.4375V19.6574H6.46875V14.6574ZM3.9375 17.1574V8.40741H-1.0625V17.1574H3.9375ZM3.07084 10.3001L11.3382 3.16555L8.0715 -0.619799L-0.195837 6.51473L3.07084 10.3001ZM11.6682 2.82054L11.6693 2.81917L7.74256 -0.27616L7.74149 -0.274793L11.6682 2.82054ZM8.15074 3.22892L17.1323 10.3648L20.2427 6.45L11.2611 -0.685903L8.15074 3.22892ZM16.1875 8.40741V17.1574H21.1875V8.40741H16.1875Z" fill="#FEB656" mask="url(#path-1-inside-1_0_94)"/>
</svg>