<svg xmlns="http://www.w3.org/2000/svg" width="21" height="21" viewBox="0 0 21 21" fill="none">
  <path d="M3.35191 1.17023L3.35187 1.17026L1.92964 1.99132C1.92963 1.99132 1.92963 1.99132 1.92962 1.99132C1.4526 2.26679 1.05053 2.64638 0.755363 3.09809C0.460256 3.54972 0.281681 4.05982 0.234126 4.58516L0.234125 4.58517C-0.0563601 7.79269 1.63068 11.2077 5.28261 14.8385C8.93197 18.466 12.4272 20.2069 15.7823 20.0457C15.7823 20.0457 15.7824 20.0457 15.7824 20.0457L15.7884 20.1706C16.3618 20.1429 16.9229 19.9827 17.4237 19.7037C17.9245 19.4247 18.3501 19.0351 18.6643 18.5683L3.35191 1.17023ZM3.35191 1.17023C3.97422 0.810615 4.7068 0.67761 5.4124 0.795884C6.1179 0.914141 6.74701 1.27524 7.18338 1.80999L7.28022 1.73096L3.35191 1.17023ZM1.5267 4.6613L1.40221 4.65001C1.43381 4.30153 1.55222 3.96421 1.74685 3.66644C1.94146 3.3687 2.20658 3.11918 2.51949 2.93854L2.51992 2.93899L3.94096 2.11863C3.94098 2.11861 3.941 2.1186 3.94102 2.11859C4.31465 1.90261 4.75441 1.82262 5.17868 1.89372C5.60306 1.96484 5.98413 2.18255 6.24964 2.50798C6.24965 2.50799 6.24966 2.508 6.24967 2.50801L7.70571 4.29167L7.70571 4.29167C7.93418 4.57156 8.06412 4.91541 8.07686 5.27473C8.08959 5.63398 7.98451 5.98955 7.77761 6.29168C7.7776 6.29169 7.7776 6.2917 7.77759 6.29171L6.48071 8.18664L1.5267 4.6613ZM1.5267 4.6613L1.40221 4.65002C1.14232 7.51699 2.72052 10.6577 6.14077 14.0577C9.55959 17.4566 12.769 19.0769 15.7542 18.933C16.1177 18.9155 16.4732 18.8139 16.7907 18.637C17.1081 18.4601 17.3783 18.2128 17.578 17.9159L1.5267 4.6613ZM16.3529 12.8874L18.1528 14.3398C18.481 14.6047 18.6959 14.9778 18.7563 15.39C18.8167 15.8021 18.7183 16.2234 18.4811 16.5756L18.4811 16.5756L17.5781 17.9158L16.3529 12.8874ZM16.3529 12.8874C16.0704 12.6593 15.7194 12.5239 15.3496 12.4992C14.9798 12.4744 14.6089 12.5614 14.2884 12.7479L14.2883 12.7479L12.2568 13.9324M16.3529 12.8874L12.2568 13.9324M12.2568 13.9324C12.2567 13.9325 12.2566 13.9326 12.2564 13.9326C11.7358 14.2308 11.1522 14.2292 10.4743 13.9342C9.79123 13.637 9.02245 13.0455 8.15251 12.1802L8.15245 12.1801C7.4161 11.4486 6.88706 10.8007 6.5706 10.219C6.25463 9.63825 6.15605 9.13386 6.26221 8.68114M12.2568 13.9324L6.26221 8.68114M6.26221 8.68114C6.30332 8.50594 6.37718 8.33856 6.48058 8.18683L6.26221 8.68114Z" fill="#275473" stroke="#275473" stroke-width="0.25"/>
</svg>