<svg xmlns="http://www.w3.org/2000/svg" width="17" height="16" viewBox="0 0 17 16" fill="none">
  <path fill-rule="evenodd" clip-rule="evenodd" d="M11.8224 10.478L16.1993 14.8518L15.0503 16L10.6734 11.6261C9.57282 12.4811 8.18982 12.9902 6.68783 12.9902C3.09818 12.9902 0.188202 10.0823 0.188202 6.49512C0.188202 2.90796 3.09818 0 6.68783 0C10.2775 0 13.1875 2.90796 13.1875 6.49512C13.1875 7.99607 12.678 9.37811 11.8224 10.478ZM6.68783 11.3665C9.38006 11.3665 11.5626 9.18548 11.5626 6.49512C11.5626 3.80475 9.38006 1.62378 6.68783 1.62378C3.9956 1.62378 1.81311 3.80475 1.81311 6.49512C1.81311 9.18548 3.9956 11.3665 6.68783 11.3665Z" fill="#FFB656"/>
</svg>