<svg xmlns="http://www.w3.org/2000/svg" width="21" height="22" viewBox="0 0 21 22" fill="none">
  <path d="M3.86126 11.7299L3.97198 3.16667C3.97933 2.59889 4.19705 2.05709 4.57725 1.66046C4.95745 1.26383 5.46899 1.04486 5.99933 1.05171L17.9973 1.20685C18.5277 1.21371 19.0334 1.44584 19.4032 1.85217C19.773 2.25849 19.9767 2.80574 19.9693 3.37352L19.7894 17.2888C19.7755 18.3592 19.148 20.4922 16.7484 20.4612M16.7484 20.4612L4.75036 20.3061C3.75053 20.2931 1.75917 19.625 1.79239 17.0561L1.82007 14.9153L13.8181 15.0704L13.7904 17.2112C13.7572 19.7802 15.7485 20.4483 16.7484 20.4612Z" stroke="#275473" stroke-width="2" stroke-linecap="round" stroke-linejoin="round"/>
</svg>